<?xml version="1.0" standalone="no"?>
<!DOCTYPE svg PUBLIC "-//W3C//DTD SVG 20010904//EN"
 "http://www.w3.org/TR/2001/REC-SVG-20010904/DTD/svg10.dtd">
<svg version="1.0" xmlns="http://www.w3.org/2000/svg"
 width="640.000000pt" height="640.000000pt" viewBox="0 0 640.000000 640.000000"
 preserveAspectRatio="xMidYMid meet">
<metadata>
Created by potrace 1.14, written by Peter Selinger 2001-2017
</metadata>
<g transform="translate(0.000000,640.000000) scale(0.100000,-0.100000)"
fill="#000000" stroke="none">
<path d="M3039 6396 c-2 -2 -32 -7 -67 -10 -249 -26 -534 -134 -760 -288 -83
-56 -87 -59 -187 -145 -316 -272 -546 -676 -600 -1058 -4 -27 -10 -59 -13 -70
-2 -11 -5 -200 -7 -420 l-1 -400 -220 0 -219 0 0 -1225 c0 -1115 6 -1563 21
-1660 53 -328 259 -662 539 -874 57 -44 216 -139 235 -142 3 0 21 -7 40 -16
39 -17 95 -36 131 -44 155 -37 139 -36 1109 -38 956 -1 1299 5 1387 24 175 39
399 152 518 261 92 85 127 120 172 174 146 175 249 387 306 630 20 89 21 111
24 1494 3 927 1 1406 -6 1410 -5 4 -104 6 -220 6 l-210 0 -1 315 c0 173 -2
331 -4 350 -16 155 -19 178 -31 260 -16 104 -78 324 -96 345 -5 5 -9 15 -9 23
0 22 -81 176 -135 259 -235 358 -558 611 -955 748 -181 62 -327 87 -546 91
-105 2 -193 2 -195 0z m276 -741 c148 -13 324 -77 465 -168 267 -172 435 -441
454 -724 7 -108 19 -483 20 -633 l1 -125 -1040 0 c-572 -1 -1045 1 -1051 3 -6
1 -11 26 -11 55 0 29 -4 117 -8 197 -16 284 -10 457 20 580 17 68 19 74 56
155 169 369 517 630 884 663 83 8 95 8 210 -3z"/>
</g>
</svg>
